<svg width="18" height="20" xmlns="http://www.w3.org/2000/svg"><path d="M8.217 20c4.761 0 7.519-.753 7.519-4.606 0-3.4-3.38-4.172-6.66-4.682l-.56-.085-.279-.041-.35-.053c-2.7-.405-3.18-.788-3.18-1.471 0-.478.49-1.331 2.843-1.331 2.455 0 3.493.647 3.493 1.87v.134h4.281v-.133c0-2.389-1.35-5.238-7.774-5.238-5.952 0-7.201 2.584-7.201 4.752 0 3.097 2.763 4.086 7.223 4.675.21.028.433.054.659.081 1.669.197 3.172.42 3.172 1.585 0 1.01-1.615 1.222-3.298 1.222-2.797 0-3.784-.593-3.784-1.92v-.134H.002L0 14.926v.317c.008.79.118 1.913 1.057 2.862C2.303 19.362 4.712 20 8.217 20Zm13.21 0v-7.49c0-2.104.547-4.423 4.176-4." fill="#1D2026" fill-rule="nonzero"/></svg>